C:\Users\Nicos\Documents\OpenSimProjects\SprintingProject\Study1\PredictiveResults\IC_pred_Sprinting_optimum_27-October-2023__11-55-39_p02_maxVel_01___IKTD_Minus_2_GRF.mot
version=1
nRows=118
nColumns=10
inDegrees=yes
endheader
time	ground_force_vx	ground_force_vy	ground_force_vz	ground_force_px	ground_force_py	ground_force_pz	ground_torque_x	ground_torque_y	ground_torque_z
0.056000	-76.089473	40.000000	12.571062	0.355447	0.000000	0.451377	-18.055089	-38.811947	14.217892
0.056647	-113.391416	60.147757	16.277594	0.356998	0.000000	0.451151	-27.135707	-56.963838	21.472624
0.058692	-254.647588	141.436976	12.528328	0.360688	0.000000	0.450618	-63.734036	-119.218338	51.014632
0.060174	-379.656042	221.191486	-8.741678	0.361505	0.000000	0.450923	-99.740375	-167.847430	79.961854
0.060821	-454.085070	271.548908	-21.745406	0.360354	0.000000	0.451418	-122.582192	-196.815724	97.853760
0.062866	-733.731699	487.524808	-76.314004	0.355259	0.000000	0.452519	-220.614242	-303.666346	173.197532
0.064349	-937.221999	703.312196	-119.793085	0.351223	0.000000	0.453470	-318.930647	-380.377418	247.019391
0.064996	-1010.883109	811.926098	-143.006001	0.349429	0.000000	0.453790	-368.443757	-405.341305	283.710215
0.067041	-1145.076243	1215.738446	-204.261998	0.342685	0.000000	0.454351	-552.372513	-441.464101	416.615179
0.068523	-1150.098888	1609.862660	-218.690033	0.333488	0.000000	0.454353	-731.445316	-430.317328	536.869087
0.069170	-1117.246510	1799.045785	-222.641866	0.329555	0.000000	0.454412	-817.508637	-408.518525	592.884184
0.071215	-877.903284	2391.108281	-173.796337	0.319686	0.000000	0.454705	-1087.249576	-295.470914	764.402798
0.072697	-619.303920	2773.112623	-120.694677	0.314326	0.000000	0.454829	-1261.292381	-182.534191	871.660494
0.073344	-492.432830	2922.412886	-95.476941	0.312381	0.000000	0.454863	-1329.296557	-129.640407	912.905306
0.075389	-246.448889	3352.121452	-80.330137	0.307772	0.000000	0.454740	-1524.343901	-20.011226	1031.689679
0.076871	-198.551996	3623.377430	-139.726048	0.305652	0.000000	0.454463	-1646.691050	16.571550	1107.491959
0.077518	-132.992869	3721.677769	-180.751524	0.305039	0.000000	0.454275	-1690.666887	52.525089	1135.257658
0.079563	10.480205	3975.339273	-288.925782	0.304266	0.000000	0.453739	-1803.767026	131.582715	1209.559530
0.081046	76.981049	4107.304417	-222.027434	0.304724	0.000000	0.454086	-1865.068951	152.877941	1251.593987
0.081693	122.084892	4150.768918	-269.189319	0.305273	0.000000	0.453912	-1884.083244	180.368735	1267.117429
0.083738	230.359535	4216.149725	-269.757663	0.307343	0.000000	0.454062	-1914.391306	228.929164	1295.802443
0.085220	303.986661	4202.518499	-261.486505	0.309291	0.000000	0.454218	-1908.859033	259.573627	1299.799479
0.085867	322.740493	4187.047719	-257.769550	0.310348	0.000000	0.454302	-1902.183596	266.704679	1299.440415
0.087912	388.526027	4084.328062	-242.813627	0.314388	0.000000	0.454610	-1856.776098	292.066509	1284.061834
0.089394	431.248120	3962.735303	-225.858937	0.317950	0.000000	0.454904	-1802.662853	306.701855	1259.951136
0.090041	455.347159	3897.456485	-216.152860	0.319680	0.000000	0.455052	-1773.546724	314.619399	1245.939575
0.092086	521.747372	3656.742337	-188.162220	0.325853	0.000000	0.455438	-1665.418710	334.366222	1191.562235
0.093568	533.203025	3455.329635	-177.396337	0.330982	0.000000	0.455769	-1574.833819	334.314253	1143.651729
0.094216	551.441660	3361.802901	-156.774990	0.333469	0.000000	0.456043	-1533.127522	337.852416	1121.058054
0.096260	579.303228	3059.221845	-137.752063	0.341966	0.000000	0.456583	-1396.788106	339.648060	1046.149801
0.097743	587.143913	2835.961756	-124.327179	0.348684	0.000000	0.457011	-1296.064915	335.973255	988.853262
0.098390	592.648905	2739.545914	-115.682121	0.351764	0.000000	0.457224	-1252.586515	333.873074	963.672938
0.100435	595.930359	2448.497181	-103.010061	0.361591	0.000000	0.457884	-1121.126537	324.790463	885.354598
0.101917	600.429364	2266.411839	-94.845297	0.367536	0.000000	0.458354	-1038.818452	320.765450	832.987705
0.102564	602.303956	2198.313225	-88.079008	0.369341	0.000000	0.458501	-1007.929734	318.846782	811.927053
0.104609	612.808020	1984.919594	-68.187271	0.375133	0.000000	0.458993	-911.063670	314.856506	744.609260
0.106091	615.865842	1820.803505	-52.430692	0.379457	0.000000	0.459377	-836.434786	310.409539	690.916639
0.106738	618.651486	1750.960306	-42.799192	0.381574	0.000000	0.459606	-804.751720	307.653957	668.121168
0.108783	610.900735	1522.258922	-22.389971	0.388275	0.000000	0.460253	-700.623716	296.034688	591.055098
0.110265	595.591273	1368.815273	-7.466059	0.393061	0.000000	0.460767	-630.704801	282.748484	538.027390
0.110913	587.682372	1308.201858	-0.400155	0.395020	0.000000	0.460993	-603.071371	276.111334	516.765545
0.112957	548.941505	1122.128889	13.397575	0.401220	0.000000	0.461727	-518.117643	252.086110	450.220171
0.114440	528.867404	996.168622	17.997659	0.405251	0.000000	0.462387	-460.615918	239.422535	403.698161
0.115087	518.069876	943.332266	23.515006	0.406521	0.000000	0.462626	-436.409648	231.785815	383.484513
0.117132	473.826961	790.175760	36.857258	0.409335	0.000000	0.463002	-365.852598	204.898917	323.446217
0.118614	434.727156	694.111193	44.604790	0.409933	0.000000	0.462845	-321.266038	183.198235	284.539166
0.119261	417.354548	653.140992	47.726654	0.410037	0.000000	0.462764	-302.250318	173.735217	267.811945
0.121306	364.047268	536.507792	56.943611	0.408907	0.000000	0.462652	-248.216414	145.167481	219.381591
0.122788	322.417685	456.149227	60.852372	0.407050	0.000000	0.462598	-211.013576	124.385167	185.675711
0.123435	304.125548	420.686252	59.439158	0.406140	0.000000	0.462470	-194.554769	116.510542	170.857388
0.125480	225.168758	305.803286	57.392242	0.402331	0.000000	0.462172	-141.333578	80.975968	123.034187
0.126962	162.697533	223.570449	59.080106	0.399172	0.000000	0.462025	-103.295246	51.587290	89.243049
0.127610	136.886699	188.973021	58.937660	0.397774	0.000000	0.461885	-87.283848	39.782098	75.168486
0.129654	60.642377	90.872085	40.472002	0.393154	0.000000	0.460274	-41.826015	12.000356	35.726714
0.131137	21.984585	36.354854	20.547568	0.390109	0.000000	0.458060	-16.652716	2.054475	14.182356
0.131784	10.429271	18.790198	11.661272	0.388908	0.000000	0.456726	-8.581973	0.228152	7.307668
0.133829	0.312834	1.079967	0.834034	0.386949	0.000000	0.450903	-0.486961	-0.181670	0.417892
0.135311	0.000393	0.043472	0.035483	0.388550	0.000000	0.445728	-0.019377	-0.013612	0.016891
0.135958	-0.001048	0.008267	0.006672	0.390310	0.000000	0.443516	-0.003667	-0.003069	0.003227
0.138003	-0.000013	0.000024	0.000016	0.400168	0.000000	0.438332	-0.000011	-0.000012	0.000010
0.139485	-0.000000	0.000000	0.000000	0.410970	0.000000	0.437134	-0.000000	-0.000000	0.000000
0.140132	-0.000000	0.000000	0.000000	0.416516	0.000000	0.437296	-0.000000	-0.000000	0.000000
0.142177	-0.000000	0.000000	0.000000	0.437328	0.000000	0.439593	-0.000000	-0.000000	0.000000
0.143659	-0.000000	0.000000	0.000000	0.455274	0.000000	0.442068	-0.000000	-0.000000	0.000000
0.144307	-0.000000	0.000000	0.000000	0.463853	0.000000	0.443194	-0.000000	-0.000000	0.000000
0.146351	-0.000000	0.000000	-0.000000	NaN	0.000000	NaN	0.000000	0.000000	0.000000
0.147834	-0.000000	0.000000	-0.000000	NaN	0.000000	NaN	0.000000	0.000000	0.000000
0.148481	-0.000000	0.000000	-0.000000	NaN	0.000000	NaN	0.000000	0.000000	0.000000
0.150526	-0.000000	0.000000	0.000000	NaN	0.000000	NaN	0.000000	0.000000	0.000000
0.152008	-0.000000	0.000000	0.000000	NaN	0.000000	NaN	0.000000	0.000000	0.000000
0.152655	-0.000000	0.000000	0.000000	NaN	0.000000	NaN	0.000000	0.000000	0.000000
0.154700	-0.000000	0.000000	0.000000	NaN	0.000000	NaN	0.000000	0.000000	0.000000
0.156182	-0.000000	0.000000	0.000000	NaN	0.000000	NaN	0.000000	0.000000	0.000000
0.156829	-0.000000	0.000000	0.000000	NaN	0.000000	NaN	0.000000	0.000000	0.000000
0.158874	-0.000000	0.000000	0.000000	NaN	0.000000	NaN	0.000000	0.000000	0.000000
0.160356	-0.000000	0.000000	0.000000	NaN	0.000000	NaN	0.000000	0.000000	0.000000
0.161004	-0.000000	0.000000	0.000000	NaN	0.000000	NaN	0.000000	0.000000	0.000000
0.163049	-0.000000	0.000000	0.000000	NaN	0.000000	NaN	0.000000	0.000000	0.000000
0.164531	-0.000000	0.000000	0.000000	NaN	0.000000	NaN	0.000000	0.000000	0.000000
0.165178	-0.000000	0.000000	0.000000	NaN	0.000000	NaN	0.000000	0.000000	0.000000
0.167223	-0.000000	0.000000	0.000000	NaN	0.000000	NaN	0.000000	0.000000	0.000000
0.168705	-0.000000	0.000000	0.000000	NaN	0.000000	NaN	0.000000	0.000000	0.000000
0.169352	-0.000000	0.000000	0.000000	NaN	0.000000	NaN	0.000000	0.000000	0.000000
0.171397	-0.000000	0.000000	0.000000	NaN	0.000000	NaN	0.000000	0.000000	0.000000
0.172879	-0.000000	0.000000	0.000000	NaN	0.000000	NaN	0.000000	0.000000	0.000000
0.173526	-0.000000	0.000000	0.000000	NaN	0.000000	NaN	0.000000	0.000000	0.000000
0.175571	-0.000000	0.000000	0.000000	NaN	0.000000	NaN	0.000000	0.000000	0.000000
0.177053	-0.000000	0.000000	0.000000	NaN	0.000000	NaN	0.000000	0.000000	0.000000
0.177701	-0.000000	0.000000	0.000000	NaN	0.000000	NaN	0.000000	0.000000	0.000000
0.179746	-0.000000	0.000000	0.000000	NaN	0.000000	NaN	0.000000	0.000000	0.000000
0.181228	-0.000000	0.000000	0.000000	NaN	0.000000	NaN	0.000000	0.000000	0.000000
0.181875	-0.000000	0.000000	0.000000	NaN	0.000000	NaN	0.000000	0.000000	0.000000
0.183920	-0.000000	0.000000	0.000000	NaN	0.000000	NaN	0.000000	0.000000	0.000000
0.185402	-0.000000	0.000000	0.000000	NaN	0.000000	NaN	0.000000	0.000000	0.000000
0.186049	-0.000000	0.000000	0.000000	NaN	0.000000	NaN	0.000000	0.000000	0.000000
0.188094	-0.000000	0.000000	-0.000000	NaN	0.000000	NaN	0.000000	0.000000	0.000000
0.189576	-0.000000	0.000000	-0.000000	NaN	0.000000	NaN	0.000000	0.000000	0.000000
0.190223	-0.000000	0.000000	-0.000000	NaN	0.000000	NaN	0.000000	0.000000	0.000000
0.192268	-0.000000	0.000000	-0.000000	NaN	0.000000	NaN	0.000000	0.000000	0.000000
0.193750	-0.000000	0.000000	-0.000000	NaN	0.000000	NaN	0.000000	0.000000	0.000000
0.194398	-0.000000	0.000000	-0.000000	NaN	0.000000	NaN	0.000000	0.000000	0.000000
0.196443	-0.000000	0.000000	-0.000000	NaN	0.000000	NaN	0.000000	0.000000	0.000000
0.197925	-0.000000	0.000000	-0.000000	NaN	0.000000	NaN	0.000000	0.000000	0.000000
0.198572	-0.000000	0.000000	-0.000000	NaN	0.000000	NaN	0.000000	0.000000	0.000000
0.200617	-0.000000	0.000000	-0.000000	NaN	0.000000	NaN	0.000000	0.000000	0.000000
0.202099	-0.000000	0.000000	-0.000000	NaN	0.000000	NaN	0.000000	0.000000	0.000000
0.202746	-0.000000	0.000000	-0.000000	NaN	0.000000	NaN	0.000000	0.000000	0.000000
0.204791	-0.000000	0.000000	-0.000000	NaN	0.000000	NaN	0.000000	0.000000	0.000000
0.206273	-0.000000	0.000000	-0.000000	NaN	0.000000	NaN	0.000000	0.000000	0.000000
0.206920	-0.000000	0.000000	-0.000000	NaN	0.000000	NaN	0.000000	0.000000	0.000000
0.208965	-0.000000	0.000000	-0.000000	NaN	0.000000	NaN	0.000000	0.000000	0.000000
0.210447	-0.000000	0.000000	-0.000000	NaN	0.000000	NaN	0.000000	0.000000	0.000000
0.211095	-0.000000	0.000000	-0.000000	NaN	0.000000	NaN	0.000000	0.000000	0.000000
0.213140	-0.000000	0.000000	-0.000000	NaN	0.000000	NaN	0.000000	0.000000	0.000000
0.214622	-0.000000	0.000000	-0.000000	NaN	0.000000	NaN	0.000000	0.000000	0.000000
0.215269	-0.000000	0.000000	-0.000000	NaN	0.000000	NaN	0.000000	0.000000	0.000000
0.217314	-0.000000	0.000000	-0.000000	NaN	0.000000	NaN	0.000000	0.000000	0.000000
0.218796	-0.000000	0.000000	-0.000000	NaN	0.000000	NaN	0.000000	0.000000	0.000000
